<?xml version="1.0" encoding="UTF-8"?>
<svg id="Layer_1" xmlns="http://www.w3.org/2000/svg" version="1.1" viewBox="0 0 800 500">
  <!-- Generator: Adobe Illustrator 29.0.1, SVG Export Plug-In . SVG Version: 2.1.0 Build 192)  -->
  <defs>
    <style>
      .st0 {
        font-family: Futura-Medium, Futura;
        font-weight: 500;
      }

      .st0, .st1, .st2 {
        fill: #84a98c;
      }

      .st3 {
        font-size: 181.73px;
      }

      .st1, .st2 {
        fill-rule: evenodd;
      }

      .st2 {
        opacity: .5;
      }

      .st4 {
        font-size: 145.39px;
        letter-spacing: 0em;
      }
    </style>
  </defs>

  
  <text class="st0" transform="translate(332.99 303.8)"><tspan class="st3" x="0" y="0">B</tspan><tspan class="st4" x="107.46" y="0">litzify</tspan></text>
  <g>

     <animateTransform 
      attributeName="transform" 
      type="rotate" 
      from="0 151.7361 250" 
      to="360 151.7361 250 " 
      dur="20s" 
      repeatCount="indefinite"/>

    <path class="st1" d="M28.75,273.47c2.02,2.19,2.96,5,2.85,7.76s-1.28,5.48-3.47,7.5c-4.39,4.04-11.22,3.76-15.26-.63-2.02-2.19-2.96-5-2.85-7.76.11-2.76,1.28-5.48,3.47-7.5,4.39-4.04,11.22-3.76,15.26.63Z"/>
    <path class="st1" d="M180.22,205.24c-.03.28-.06.56-.07.84-.1,2.43.37,4.88,1.4,7.14l-33.42,30.79-33.43,30.79c-2.42-1.35-5.13-2.01-7.85-1.97l-36.03-105.08c1.53-.82,2.97-1.81,4.27-3.01,1.31-1.2,2.42-2.56,3.35-4.01l101.77,44.53Z"/>
    <path class="st1" d="M40.34,287.27l51.41,4.73c.6,2.64,1.86,5.08,3.75,7.13,1.98,2.15,4.43,3.6,7.04,4.38l1.07,41.14.47,17.87c-1.5.6-2.92,1.43-4.24,2.49l-64.34-69.85c2.22-2.26,3.86-4.95,4.83-7.89Z"/>
    <path class="st2" d="M60.3,170.16c.34.01.67,0,1,0l36.28,105.83c-.4.3-.79.63-1.17.97-1.64,1.51-2.9,3.32-3.76,5.3l-51.51-4.74c-.63-3.96-2.41-7.66-5.19-10.68-2.65-2.88-6-4.88-9.68-5.89l29.8-91.41c1.37.35,2.78.56,4.23.62Z"/>
    <path class="st1" d="M122.63,290.17c.29-2.76-.13-5.59-1.31-8.17l66.85-61.57c2.48,1.38,5.26,2.04,8.03,1.97l38.68,108.55c-1.44.79-2.8,1.75-4.05,2.89-1.24,1.14-2.3,2.42-3.21,3.79l-105.01-47.45Z"/>
    <path class="st1" d="M178.01,135.98c3.06,3.32,7.04,5.48,11.41,6.28l.04,1.77,1.12,47.91c-1.94.69-3.78,1.76-5.39,3.25-.38.35-.73.71-1.06,1.08l-34.89-15.26-67.61-29.58c.03-.33.08-.66.09-.99.06-1.4-.03-2.78-.24-4.14l91.34-21.11c.61,4.01,2.4,7.75,5.21,10.8Z"/>
    <path class="st2" d="M268.72,204.07c-1.91,1.76-3.43,3.83-4.54,6.1l-52.99-6.48c-.54-2.75-1.8-5.38-3.83-7.58-1.97-2.14-4.4-3.58-7-4.37l-1.15-49.36-.02-.67c2.91-.89,5.61-2.41,7.91-4.52,0,0,.01-.02.02-.02l61.61,66.89s-.02.01-.02.02Z"/>
    <path class="st1" d="M245.64,328.4c-.42-.02-.84,0-1.26,0l-38.95-109.29c.35-.27.69-.55,1.02-.85,1.54-1.42,2.73-3.08,3.57-4.88l52.09,6.37c.13,4.98,2.01,9.69,5.42,13.39,2.56,2.78,5.77,4.74,9.3,5.78l-27.33,89.99c-1.25-.29-2.54-.47-3.85-.53Z"/>
    <path class="st2" d="M122.58,366.67c-2.42-2.62-5.48-4.28-8.73-4.98l-1.52-58.41c1.93-.69,3.75-1.76,5.35-3.24.33-.3.63-.62.93-.95l105.73,47.78c-.04.42-.1.83-.11,1.26-.06,1.36.02,2.7.22,4.02l-97.95,21.78c-.67-2.68-1.99-5.17-3.91-7.26Z"/>
    <path class="st2" d="M71.93,150.03c-.11,2.76-1.28,5.48-3.47,7.5-4.39,4.04-11.22,3.76-15.26-.63-2.02-2.19-2.96-5-2.85-7.76.11-2.76,1.28-5.48,3.47-7.5,4.39-4.04,11.22-3.76,15.26.63,2.02,2.19,2.96,5,2.85,7.76Z"/>
    <path class="st1" d="M200.48,129.98c-4.39,4.04-11.22,3.76-15.26-.63-2.02-2.19-2.96-5-2.85-7.76.11-2.76,1.28-5.48,3.47-7.5,4.39-4.04,11.22-3.76,15.26.63,2.02,2.19,2.96,5,2.85,7.76-.11,2.76-1.28,5.48-3.47,7.5Z"/>
    <path class="st2" d="M274.72,226.53c-2.02-2.19-2.96-5-2.85-7.76.11-2.76,1.28-5.48,3.47-7.5,4.39-4.04,11.22-3.76,15.26.63,2.02,2.19,2.96,5,2.85,7.76-.11,2.76-1.28,5.48-3.47,7.5-4.39,4.04-11.22,3.76-15.26-.63Z"/>
    <path class="st1" d="M234,348.53c.11-2.76,1.28-5.48,3.47-7.5,4.39-4.04,11.22-3.76,15.26.63,2.02,2.19,2.96,5,2.85,7.76-.11,2.76-1.28,5.48-3.47,7.5-4.39,4.04-11.22,3.76-15.26-.63-2.02-2.19-2.96-5-2.85-7.76Z"/>
    <path class="st2" d="M102.99,370.02c4.39-4.04,11.22-3.76,15.26.63,2.02,2.19,2.96,5,2.85,7.76-.11,2.76-1.28,5.48-3.47,7.5-4.39,4.04-11.22,3.76-15.26-.63-2.02-2.19-2.96-5-2.85-7.76.11-2.76,1.28-5.48,3.47-7.5Z"/>
  </g>
</svg>